<mxfile host="Electron" modified="2024-02-18T20:00:34.981Z" agent="Mozilla/5.0 (X11; Linux x86_64) AppleWebKit/537.36 (KHTML, like Gecko) draw.io/22.1.21 Chrome/120.0.6099.109 Electron/28.1.0 Safari/537.36" etag="iAfWLDDjvQzC_56hJrz5" version="22.1.21" type="device">
  <diagram name="Page-1" id="BeeQXuH5mpLVNXQqc5U8">
    <mxGraphModel dx="478" dy="302" grid="0" gridSize="10" guides="1" tooltips="1" connect="1" arrows="1" fold="1" page="1" pageScale="1" pageWidth="850" pageHeight="1100" math="0" shadow="0">
      <root>
        <mxCell id="0" />
        <mxCell id="1" parent="0" />
        <mxCell id="I0c3L2jA-JhZfiCe1uU5-13" value="" style="edgeStyle=orthogonalEdgeStyle;shape=connector;curved=0;rounded=1;orthogonalLoop=1;jettySize=auto;html=1;labelBackgroundColor=default;strokeColor=#666666;strokeWidth=3;align=center;verticalAlign=middle;fontFamily=Helvetica;fontSize=12;fontColor=#666666;endArrow=openThin;endFill=0;fillColor=#FAE5C7;" parent="1" source="I0c3L2jA-JhZfiCe1uU5-7" target="I0c3L2jA-JhZfiCe1uU5-8" edge="1">
          <mxGeometry relative="1" as="geometry" />
        </mxCell>
        <mxCell id="I0c3L2jA-JhZfiCe1uU5-7" value="Start" style="ellipse;whiteSpace=wrap;html=1;aspect=fixed;strokeColor=#666666;fontColor=#666666;fillColor=#FFFFFF;strokeWidth=3;" parent="1" vertex="1">
          <mxGeometry x="350" y="70" width="50" height="50" as="geometry" />
        </mxCell>
        <mxCell id="I0c3L2jA-JhZfiCe1uU5-12" value="" style="edgeStyle=orthogonalEdgeStyle;shape=connector;curved=0;rounded=1;orthogonalLoop=1;jettySize=auto;html=1;labelBackgroundColor=default;strokeColor=#666666;strokeWidth=3;align=center;verticalAlign=middle;fontFamily=Helvetica;fontSize=12;fontColor=#666666;endArrow=openThin;endFill=0;fillColor=#FAE5C7;" parent="1" target="I0c3L2jA-JhZfiCe1uU5-10" edge="1">
          <mxGeometry relative="1" as="geometry">
            <mxPoint x="246.75" y="112" as="sourcePoint" />
          </mxGeometry>
        </mxCell>
        <mxCell id="I0c3L2jA-JhZfiCe1uU5-8" value="Extract &quot;location&quot; key from message &quot;values&quot;" style="rounded=1;whiteSpace=wrap;html=1;strokeColor=#666666;fontColor=#666666;fillColor=#FFFFFF;strokeWidth=3;" parent="1" vertex="1">
          <mxGeometry x="186.75" y="65" width="120" height="60" as="geometry" />
        </mxCell>
        <mxCell id="I0c3L2jA-JhZfiCe1uU5-15" value="" style="edgeStyle=orthogonalEdgeStyle;shape=connector;curved=0;rounded=1;orthogonalLoop=1;jettySize=auto;html=1;labelBackgroundColor=default;strokeColor=#666666;strokeWidth=3;align=center;verticalAlign=middle;fontFamily=Helvetica;fontSize=12;fontColor=#666666;endArrow=openThin;endFill=0;fillColor=#FAE5C7;" parent="1" source="I0c3L2jA-JhZfiCe1uU5-10" target="I0c3L2jA-JhZfiCe1uU5-14" edge="1">
          <mxGeometry relative="1" as="geometry" />
        </mxCell>
        <mxCell id="I0c3L2jA-JhZfiCe1uU5-17" value="" style="edgeStyle=orthogonalEdgeStyle;shape=connector;curved=0;rounded=1;orthogonalLoop=1;jettySize=auto;html=1;labelBackgroundColor=default;strokeColor=#666666;strokeWidth=3;align=center;verticalAlign=middle;fontFamily=Helvetica;fontSize=12;fontColor=#666666;endArrow=openThin;endFill=0;fillColor=#FAE5C7;" parent="1" source="I0c3L2jA-JhZfiCe1uU5-10" target="I0c3L2jA-JhZfiCe1uU5-16" edge="1">
          <mxGeometry relative="1" as="geometry">
            <Array as="points">
              <mxPoint x="340" y="200" />
              <mxPoint x="340" y="200" />
            </Array>
          </mxGeometry>
        </mxCell>
        <mxCell id="I0c3L2jA-JhZfiCe1uU5-10" value="&quot;location&quot; is present &lt;br style=&quot;font-size: 11px;&quot;&gt;and exists in the&lt;br style=&quot;font-size: 11px;&quot;&gt;application state." style="rhombus;whiteSpace=wrap;html=1;rounded=0;strokeColor=#666666;strokeWidth=3;align=center;verticalAlign=middle;fontFamily=Helvetica;fontSize=11;fontColor=#666666;fillColor=#FFFFFF;spacingTop=2;" parent="1" vertex="1">
          <mxGeometry x="166" y="150" width="161.5" height="100" as="geometry" />
        </mxCell>
        <mxCell id="I0c3L2jA-JhZfiCe1uU5-52" value="" style="edgeStyle=orthogonalEdgeStyle;shape=connector;curved=0;rounded=1;orthogonalLoop=1;jettySize=auto;html=1;labelBackgroundColor=default;strokeColor=#666666;strokeWidth=3;align=center;verticalAlign=middle;fontFamily=Helvetica;fontSize=12;fontColor=#666666;endArrow=openThin;endFill=0;fillColor=#FAE5C7;" parent="1" source="I0c3L2jA-JhZfiCe1uU5-14" target="I0c3L2jA-JhZfiCe1uU5-51" edge="1">
          <mxGeometry relative="1" as="geometry" />
        </mxCell>
        <mxCell id="I0c3L2jA-JhZfiCe1uU5-14" value="Message can&#39;t be processed as it it&#39;s origin can&#39;t be traced" style="rounded=1;whiteSpace=wrap;html=1;strokeColor=#666666;strokeWidth=3;align=center;verticalAlign=middle;fontFamily=Helvetica;fontSize=11;fontColor=#666666;fillColor=#FFFFFF;" parent="1" vertex="1">
          <mxGeometry x="186.75" y="270" width="120" height="60" as="geometry" />
        </mxCell>
        <mxCell id="I0c3L2jA-JhZfiCe1uU5-24" style="edgeStyle=orthogonalEdgeStyle;shape=connector;curved=0;rounded=1;orthogonalLoop=1;jettySize=auto;html=1;labelBackgroundColor=default;strokeColor=#666666;strokeWidth=3;align=center;verticalAlign=middle;fontFamily=Helvetica;fontSize=12;fontColor=#666666;endArrow=openThin;endFill=0;fillColor=#FAE5C7;" parent="1" source="I0c3L2jA-JhZfiCe1uU5-16" target="I0c3L2jA-JhZfiCe1uU5-23" edge="1">
          <mxGeometry relative="1" as="geometry" />
        </mxCell>
        <mxCell id="I0c3L2jA-JhZfiCe1uU5-16" value="&lt;font style=&quot;&quot; face=&quot;Helvetica&quot;&gt;Find location in the model&lt;/font&gt;" style="rounded=1;whiteSpace=wrap;html=1;strokeColor=#666666;fontColor=#666666;fillColor=#FFFFFF;strokeWidth=3;" parent="1" vertex="1">
          <mxGeometry x="344.62" y="170" width="120" height="60" as="geometry" />
        </mxCell>
        <mxCell id="I0c3L2jA-JhZfiCe1uU5-61" style="edgeStyle=orthogonalEdgeStyle;shape=connector;curved=0;rounded=1;orthogonalLoop=1;jettySize=auto;html=1;labelBackgroundColor=default;strokeColor=#666666;strokeWidth=3;align=center;verticalAlign=middle;fontFamily=Helvetica;fontSize=12;fontColor=#666666;endArrow=openThin;endFill=0;fillColor=#FAE5C7;exitX=0;exitY=0.5;exitDx=0;exitDy=0;" parent="1" source="I0c3L2jA-JhZfiCe1uU5-18" target="I0c3L2jA-JhZfiCe1uU5-26" edge="1">
          <mxGeometry relative="1" as="geometry">
            <Array as="points">
              <mxPoint x="430" y="410" />
              <mxPoint x="430" y="480" />
            </Array>
          </mxGeometry>
        </mxCell>
        <mxCell id="I0c3L2jA-JhZfiCe1uU5-62" value="" style="edgeStyle=orthogonalEdgeStyle;shape=connector;curved=0;rounded=1;orthogonalLoop=1;jettySize=auto;html=1;labelBackgroundColor=default;strokeColor=#666666;strokeWidth=3;align=center;verticalAlign=middle;fontFamily=Helvetica;fontSize=12;fontColor=#666666;endArrow=openThin;endFill=0;fillColor=#FAE5C7;" parent="1" source="I0c3L2jA-JhZfiCe1uU5-18" target="I0c3L2jA-JhZfiCe1uU5-56" edge="1">
          <mxGeometry relative="1" as="geometry" />
        </mxCell>
        <mxCell id="I0c3L2jA-JhZfiCe1uU5-18" value="Is the &lt;br&gt;&quot;deviceUUID&quot;&amp;nbsp;&lt;br&gt;registered in the &lt;br&gt;componets?" style="rhombus;whiteSpace=wrap;html=1;rounded=0;strokeColor=#666666;strokeWidth=3;align=center;verticalAlign=middle;fontFamily=Helvetica;fontSize=11;fontColor=#666666;fillColor=#FFFFFF;spacingTop=-6;" parent="1" vertex="1">
          <mxGeometry x="482.37" y="370" width="137.13" height="80" as="geometry" />
        </mxCell>
        <mxCell id="I0c3L2jA-JhZfiCe1uU5-30" value="" style="edgeStyle=orthogonalEdgeStyle;shape=connector;curved=0;rounded=1;orthogonalLoop=1;jettySize=auto;html=1;labelBackgroundColor=default;strokeColor=#666666;strokeWidth=3;align=center;verticalAlign=middle;fontFamily=Helvetica;fontSize=12;fontColor=#666666;endArrow=openThin;endFill=0;fillColor=#FAE5C7;" parent="1" source="I0c3L2jA-JhZfiCe1uU5-23" target="I0c3L2jA-JhZfiCe1uU5-28" edge="1">
          <mxGeometry relative="1" as="geometry">
            <Array as="points">
              <mxPoint x="480" y="300" />
              <mxPoint x="480" y="300" />
            </Array>
          </mxGeometry>
        </mxCell>
        <mxCell id="I0c3L2jA-JhZfiCe1uU5-53" style="edgeStyle=orthogonalEdgeStyle;shape=connector;curved=0;rounded=1;orthogonalLoop=1;jettySize=auto;html=1;labelBackgroundColor=default;strokeColor=#666666;strokeWidth=3;align=center;verticalAlign=middle;fontFamily=Helvetica;fontSize=12;fontColor=#666666;endArrow=openThin;endFill=0;fillColor=#FAE5C7;exitX=0.5;exitY=1;exitDx=0;exitDy=0;entryX=1;entryY=0.5;entryDx=0;entryDy=0;" parent="1" source="I0c3L2jA-JhZfiCe1uU5-23" target="I0c3L2jA-JhZfiCe1uU5-51" edge="1">
          <mxGeometry relative="1" as="geometry" />
        </mxCell>
        <mxCell id="I0c3L2jA-JhZfiCe1uU5-23" value="Any data &lt;br&gt;keys left to&lt;br&gt;process?" style="rhombus;whiteSpace=wrap;html=1;rounded=0;strokeColor=#666666;strokeWidth=3;align=center;verticalAlign=middle;fontFamily=Helvetica;fontSize=11;fontColor=#666666;fillColor=#FFFFFF;spacingTop=-1;" parent="1" vertex="1">
          <mxGeometry x="339.245" y="260" width="130.75" height="80" as="geometry" />
        </mxCell>
        <mxCell id="I0c3L2jA-JhZfiCe1uU5-55" style="edgeStyle=orthogonalEdgeStyle;shape=connector;curved=0;rounded=1;orthogonalLoop=1;jettySize=auto;html=1;labelBackgroundColor=default;strokeColor=#666666;strokeWidth=3;align=center;verticalAlign=middle;fontFamily=Helvetica;fontSize=12;fontColor=#666666;endArrow=openThin;endFill=0;fillColor=#FAE5C7;" parent="1" source="I0c3L2jA-JhZfiCe1uU5-26" target="I0c3L2jA-JhZfiCe1uU5-51" edge="1">
          <mxGeometry relative="1" as="geometry" />
        </mxCell>
        <mxCell id="I0c3L2jA-JhZfiCe1uU5-26" value="Update last_reading of the device&lt;br&gt;to message&#39;s &quot;timeStamp&quot;" style="rounded=1;whiteSpace=wrap;html=1;strokeColor=#666666;fontColor=#666666;fillColor=#FFFFFF;strokeWidth=3;" parent="1" vertex="1">
          <mxGeometry x="280" y="450" width="120" height="60" as="geometry" />
        </mxCell>
        <mxCell id="I0c3L2jA-JhZfiCe1uU5-60" value="" style="edgeStyle=orthogonalEdgeStyle;shape=connector;curved=0;rounded=1;orthogonalLoop=1;jettySize=auto;html=1;labelBackgroundColor=default;strokeColor=#666666;strokeWidth=3;align=center;verticalAlign=middle;fontFamily=Helvetica;fontSize=12;fontColor=#666666;endArrow=openThin;endFill=0;fillColor=#FAE5C7;" parent="1" source="I0c3L2jA-JhZfiCe1uU5-28" target="I0c3L2jA-JhZfiCe1uU5-18" edge="1">
          <mxGeometry relative="1" as="geometry" />
        </mxCell>
        <mxCell id="sp3hOzPZP7fwlIX_qvxb-13" style="edgeStyle=orthogonalEdgeStyle;shape=connector;curved=0;rounded=1;orthogonalLoop=1;jettySize=auto;html=1;exitX=0.5;exitY=1;exitDx=0;exitDy=0;entryX=1;entryY=0.5;entryDx=0;entryDy=0;labelBackgroundColor=default;strokeColor=#666666;strokeWidth=3;align=center;verticalAlign=middle;fontFamily=Helvetica;fontSize=12;fontColor=#666666;endArrow=openThin;endFill=0;fillColor=#FAE5C7;" edge="1" parent="1" source="I0c3L2jA-JhZfiCe1uU5-28" target="I0c3L2jA-JhZfiCe1uU5-51">
          <mxGeometry relative="1" as="geometry">
            <Array as="points">
              <mxPoint x="551" y="352" />
              <mxPoint x="405" y="352" />
              <mxPoint x="405" y="405" />
            </Array>
          </mxGeometry>
        </mxCell>
        <mxCell id="I0c3L2jA-JhZfiCe1uU5-28" value="Is the key &lt;br&gt;present in the data requirements?" style="rhombus;whiteSpace=wrap;html=1;rounded=0;strokeColor=#666666;strokeWidth=3;align=center;verticalAlign=middle;fontFamily=Helvetica;fontSize=11;fontColor=#666666;fillColor=#FFFFFF;spacingTop=-3;" parent="1" vertex="1">
          <mxGeometry x="485.5550000000001" y="260" width="130.75" height="80" as="geometry" />
        </mxCell>
        <mxCell id="I0c3L2jA-JhZfiCe1uU5-51" value="End" style="ellipse;whiteSpace=wrap;html=1;aspect=fixed;strokeColor=#666666;fontColor=#666666;fillColor=#FFFFFF;strokeWidth=3;" parent="1" vertex="1">
          <mxGeometry x="221.75" y="380" width="50" height="50" as="geometry" />
        </mxCell>
        <mxCell id="I0c3L2jA-JhZfiCe1uU5-59" style="edgeStyle=orthogonalEdgeStyle;shape=connector;curved=0;rounded=1;orthogonalLoop=1;jettySize=auto;html=1;exitX=0;exitY=0.5;exitDx=0;exitDy=0;labelBackgroundColor=default;strokeColor=#666666;strokeWidth=3;align=center;verticalAlign=middle;fontFamily=Helvetica;fontSize=12;fontColor=#666666;endArrow=openThin;endFill=0;fillColor=#FAE5C7;" parent="1" source="I0c3L2jA-JhZfiCe1uU5-56" target="I0c3L2jA-JhZfiCe1uU5-26" edge="1">
          <mxGeometry relative="1" as="geometry">
            <Array as="points">
              <mxPoint x="430" y="510" />
              <mxPoint x="430" y="480" />
            </Array>
          </mxGeometry>
        </mxCell>
        <mxCell id="I0c3L2jA-JhZfiCe1uU5-56" value="Create new component&lt;br&gt;from the message &quot;deviceUUID&quot; and append it to data requirement components" style="rounded=1;whiteSpace=wrap;html=1;strokeColor=#666666;fontColor=#666666;fillColor=#FFFFFF;strokeWidth=3;spacingTop=-4;" parent="1" vertex="1">
          <mxGeometry x="465.28" y="470" width="170.55" height="80" as="geometry" />
        </mxCell>
        <mxCell id="sp3hOzPZP7fwlIX_qvxb-2" value="&lt;font color=&quot;#666666&quot;&gt;Yes&lt;/font&gt;" style="text;html=1;align=center;verticalAlign=middle;resizable=0;points=[];autosize=1;strokeColor=none;fillColor=none;" vertex="1" parent="1">
          <mxGeometry x="304.62" y="170" width="40" height="30" as="geometry" />
        </mxCell>
        <mxCell id="sp3hOzPZP7fwlIX_qvxb-3" value="&lt;font color=&quot;#666666&quot;&gt;No&lt;/font&gt;" style="text;html=1;align=center;verticalAlign=middle;resizable=0;points=[];autosize=1;strokeColor=none;fillColor=none;" vertex="1" parent="1">
          <mxGeometry x="200" y="240" width="40" height="30" as="geometry" />
        </mxCell>
        <mxCell id="sp3hOzPZP7fwlIX_qvxb-4" value="&lt;font color=&quot;#666666&quot;&gt;Yes&lt;/font&gt;" style="text;html=1;align=center;verticalAlign=middle;resizable=0;points=[];autosize=1;strokeColor=none;fillColor=none;" vertex="1" parent="1">
          <mxGeometry x="450" y="270" width="40" height="30" as="geometry" />
        </mxCell>
        <mxCell id="sp3hOzPZP7fwlIX_qvxb-5" value="&lt;font color=&quot;#666666&quot;&gt;Yes&lt;/font&gt;" style="text;html=1;align=center;verticalAlign=middle;resizable=0;points=[];autosize=1;strokeColor=none;fillColor=none;" vertex="1" parent="1">
          <mxGeometry x="450" y="380" width="40" height="30" as="geometry" />
        </mxCell>
        <mxCell id="sp3hOzPZP7fwlIX_qvxb-6" value="&lt;font color=&quot;#666666&quot;&gt;No&lt;/font&gt;" style="text;html=1;align=center;verticalAlign=middle;resizable=0;points=[];autosize=1;strokeColor=none;fillColor=none;" vertex="1" parent="1">
          <mxGeometry x="370" y="330" width="40" height="30" as="geometry" />
        </mxCell>
        <mxCell id="sp3hOzPZP7fwlIX_qvxb-8" value="&lt;font color=&quot;#666666&quot;&gt;No&lt;/font&gt;" style="text;html=1;align=center;verticalAlign=middle;resizable=0;points=[];autosize=1;strokeColor=none;fillColor=none;" vertex="1" parent="1">
          <mxGeometry x="550" y="440" width="40" height="30" as="geometry" />
        </mxCell>
        <mxCell id="sp3hOzPZP7fwlIX_qvxb-9" value="&lt;font color=&quot;#666666&quot;&gt;Yes&lt;/font&gt;" style="text;html=1;align=center;verticalAlign=middle;resizable=0;points=[];autosize=1;strokeColor=none;fillColor=none;" vertex="1" parent="1">
          <mxGeometry x="550" y="346" width="40" height="30" as="geometry" />
        </mxCell>
        <mxCell id="sp3hOzPZP7fwlIX_qvxb-14" value="&lt;font color=&quot;#666666&quot;&gt;No&lt;/font&gt;" style="text;html=1;align=center;verticalAlign=middle;resizable=0;points=[];autosize=1;strokeColor=none;fillColor=none;" vertex="1" parent="1">
          <mxGeometry x="513" y="330" width="40" height="30" as="geometry" />
        </mxCell>
      </root>
    </mxGraphModel>
  </diagram>
</mxfile>
